<?xml version="1.0" encoding="utf-8"?><!DOCTYPE svg PUBLIC "-//W3C//DTD SVG 1.1//EN" "http://www.w3.org/Graphics/SVG/1.1/DTD/svg11.dtd"><svg xmlns="http://www.w3.org/2000/svg" xmlns:xlink="http://www.w3.org/1999/xlink"><symbol viewBox="0 0 24 24" id="arrow-left" xmlns="http://www.w3.org/2000/svg"><path d="M6 12H18M6 12L11 7M6 12L11 17" stroke-width="2" stroke-linecap="round" stroke-linejoin="round"/></symbol><symbol viewBox="0 0 24 24" id="arrow-right" xmlns="http://www.w3.org/2000/svg"><path d="M6 12H18M18 12L13 7M18 12L13 17" stroke-width="2" stroke-linecap="round" stroke-linejoin="round"/></symbol><symbol id="logo" viewBox="0 0 390.3 135.76" style="enable-background:new 0 0 390.3 135.76" xml:space="preserve" xmlns="http://www.w3.org/2000/svg"><style type="text/css">.dst0{fill-rule:evenodd;clip-rule:evenodd;}</style><path id="dGEHWOL__x28_R_x29_" class="dst0" d="M286.5,70.83c-10.01,0-17.64,2.77-22.89,8.31c-5.25,5.54-7.87,13.55-7.87,24.05  c0,10.61,2.64,18.7,7.92,24.25c5.28,5.55,12.86,8.33,22.76,8.33c10.04,0,17.66-2.76,22.87-8.28c5.21-5.52,7.81-13.59,7.81-24.2  c0-10.64-2.59-18.71-7.77-24.2C304.14,73.58,296.54,70.83,286.5,70.83z M296.01,117.12c-2.09,2.96-5.29,4.44-9.6,4.44  c-8.49,0-12.73-6.1-12.73-18.29c0-12.31,4.27-18.47,12.81-18.47c4.2,0,7.36,1.5,9.47,4.51s3.17,7.66,3.17,13.96  C299.14,109.54,298.1,114.16,296.01,117.12z M239.13,71.82h16.44l-15.53,63.08h-20.15l-6.04-27.48c-0.29-1.15-0.74-3.44-1.36-6.86  c-0.62-3.42-1.07-6.28-1.36-8.58c-0.23,1.87-0.6,4.19-1.12,6.97c-0.52,2.78-1.03,5.33-1.53,7.66c-0.5,2.33-2.6,11.76-6.28,28.3  h-20.15l-15.62-63.08h16.44l6.86,31.63c1.55,6.99,2.62,12.55,3.19,16.7c0.37-2.93,1.04-6.92,2.01-11.95  c0.96-5.03,1.86-9.2,2.7-12.51l5.57-23.86h15.79l5.39,23.86c0.92,3.83,1.86,8.24,2.8,13.25c0.95,5,1.58,8.75,1.9,11.22  c0.37-3.19,1.39-8.73,3.06-16.61L239.13,71.82z M145.56,71.82h17.13v63.08h-17.13v-25.71h-19.8v25.71h-17.13V71.82h17.13V95.2h19.8  V71.82z M348.28,95.85l-3.58-5.99c1.54-0.62,2.31-1.79,2.31-3.51c0-1.38-0.41-2.41-1.22-3.09c-0.81-0.68-2.1-1.03-3.85-1.03h-3.95  v13.62h2.85v-5.22h1.36l2.9,5.22H348.28z M343.57,87.91c-0.38,0.35-0.95,0.53-1.69,0.53h-1.04v-3.98h1.01  c0.79,0,1.38,0.14,1.74,0.43c0.37,0.29,0.55,0.79,0.55,1.52C344.14,87.06,343.95,87.56,343.57,87.91z M27.66,97.97h27.22v34  c-7.39,2.53-15.52,3.8-24.38,3.8c-9.72,0-17.24-2.82-22.54-8.46C2.65,121.67,0,113.63,0,103.19C0,93,2.9,85.08,8.71,79.41  c5.81-5.67,13.95-8.5,24.42-8.5c3.97,0,7.72,0.37,11.24,1.12c3.52,0.75,6.59,1.7,9.21,2.85l-5.39,13.37  c-4.54-2.24-9.53-3.37-14.97-3.37c-4.98,0-8.82,1.62-11.54,4.85c-2.72,3.24-4.08,7.86-4.08,13.87c0,5.9,1.23,10.39,3.69,13.48  c2.46,3.09,6,4.64,10.64,4.64c2.53,0,4.86-0.24,6.99-0.73v-9.88H27.66V97.97z M340.22,100.13c0.71,0.14,1.43,0.23,2.19,0.23  c2.09,0,4.02-0.52,5.78-1.57c1.76-1.05,3.13-2.44,4.1-4.18s1.46-3.6,1.46-5.58c0-2.03-0.51-3.93-1.52-5.69  c-1.02-1.76-2.4-3.14-4.16-4.15c-1.76-1.01-3.65-1.51-5.66-1.51c-0.75,0-1.47,0.09-2.19,0.23v-6.1h-17.04v63.08h41.33v-13.76h-24.29  V100.13z M334.19,93.79c-0.85-1.46-1.27-3.05-1.27-4.76c0-1.72,0.43-3.31,1.3-4.78c0.86-1.47,2.02-2.62,3.48-3.46  c1.45-0.83,3.02-1.25,4.71-1.25c1.68,0,3.26,0.42,4.73,1.27s2.63,2,3.49,3.48c0.85,1.47,1.27,3.05,1.27,4.75  c0,1.7-0.42,3.28-1.26,4.73c-0.84,1.45-1.99,2.61-3.46,3.47c-1.47,0.86-3.06,1.29-4.77,1.29c-1.69,0-3.27-0.42-4.74-1.27  C336.2,96.41,335.04,95.25,334.19,93.79z M63.5,71.82h37.45V85.5H80.54v9.92h18.9v13.68h-18.9v11.91h20.41v13.89H63.5V71.82z"/><path id="dFUSS" d="M309.3,6.27c0.81-1.44,1.73-2.45,3.41-2.81c2.09-0.45,3.94,0.76,5.72,2.4c2.33,2.15,6.32,7.43,4.2,12.07  c-0.86,1.88-3.28,2.96-5.27,3.14c-2.27,0.21-4.55-1.01-6.09-3.14C308.27,13.76,307.86,8.83,309.3,6.27L309.3,6.27z M352.19,12.26  c-0.5,1.05,0.11,2.54,1.09,3.66c1.01,1.17,2.82,2.46,5.19,1.94c0.69-0.15,1.27-0.43,1.7-0.99c0.63-0.82,0.35-2.84-0.92-4.38  c-1.25-1.52-3.42-2.26-4.78-1.94C353.29,10.82,352.74,11.12,352.19,12.26L352.19,12.26z M324.82,20.63  c-2.26,1.15-3.94,2.35-4.53,4.44c-1.22,4.38,0.36,10.77,3.52,14.02c3.94,4.06,8.97,5.14,13.8,4.74c2.32-0.19,5.11-0.12,7.5,0.9  c3.76,1.61,9.15,6.41,11.2,9.09c3.21,4.19,5.06,8.73,6.38,13.53c1.76,6.45,1.97,11.59,1.05,17.9c-0.68,4.67-1.23,6.12,0.34,10.51  c1.6,4.49,6.03,9.88,10.07,11.43c2.74,1.05,5.07,1.17,7.85,0.18c3.36-1.21,5.25-2.83,6.98-6.11c2.26-4.28,1.67-11.53-2.02-17.52  c-2.19-3.56-3.25-5.23-4.69-8.87c-2.68-6.79-3.08-11.8-4.39-19.42c-1.01-5.87-1.81-9.54-2.95-14.24c-1.79-7.4-4.27-14.15-7.37-17.49  c-3.07-3.31-4.12-3.41-9.03-3.82c-3.29-0.27-5.72-1.77-8.11-2.3c-6.71-1.47-13.09-0.82-18.11,0.33  C329.31,18.6,327.27,19.38,324.82,20.63L324.82,20.63z M342.96,5.58c-1.49-0.03-2.56,0.77-3.11,1.74c-0.92,1.57-0.02,4.08,1.26,5.26  c1.2,1.11,3.7,1.88,5.15,1.42c0.9-0.28,1.65-0.85,2.15-1.88c0.63-1.32-0.41-4.31-2.15-5.52C345.23,5.89,343.96,5.56,342.96,5.58  L342.96,5.58z M330.63,4.58c0,0-0.07,0.16-0.11,0.35c-0.03,0.16-0.02,0.42-0.02,0.42s-0.05-0.15-0.08-0.29  c-0.03-0.12-0.13-0.35-0.24-0.63c-0.84-1.73-2.51-4.48-4.95-4.43c-1.56,0.04-2.77,0.6-3.66,2.04c-1.6,2.56,0.05,6.26,1.6,7.72  c1.37,1.29,2.96,2.02,4.46,1.77c1.94-0.33,2.66-1.88,3.07-3.74c0,0,0.51,1.16,1.02,1.91c1.01,1.49,2.07,2.33,3.83,2.23  c1.41-0.08,2.47-0.61,3.06-1.95c0.88-1.97,0.03-4.83-1.49-6.38c-1.1-1.12-2.84-1.42-4.32-0.94C332.08,2.9,331.12,3.43,330.63,4.58  L330.63,4.58z"/></symbol><symbol id="logo-bg" viewBox="0 0 124.72 34.02" xmlns="http://www.w3.org/2000/svg"><defs><style>.ccls-1{fill:#fff;}.ccls-2{fill:#faa61a;}.ccls-3{fill:#ffcc40;}.ccls-4{fill:#bdd753;}.ccls-5{fill:#87b7e2;}.ccls-6{fill:#8dc63f;}.ccls-7{fill:#e88c9f;}</style></defs><path class="ccls-4" d="M50.56,18.43s-.02,0-.02,.01c0,.01,.02,0,.02-.01"/><path class="ccls-6" d="M16.19,27.72c5.92,0,10.71-4.8,10.71-10.71s-4.8-10.72-10.71-10.72S5.47,11.09,5.47,17.01s4.8,10.71,10.72,10.71"/><path class="ccls-7" d="M37.62,27.72c5.92,0,10.71-4.8,10.71-10.71s-4.8-10.72-10.71-10.72-10.72,4.8-10.72,10.72,4.8,10.71,10.72,10.71"/><path class="ccls-3" d="M59.05,27.72c5.92,0,10.72-4.8,10.72-10.71s-4.8-10.72-10.72-10.72-10.72,4.8-10.72,10.72,4.8,10.71,10.72,10.71"/><path class="ccls-2" d="M80.48,27.72c5.92,0,10.71-4.8,10.71-10.71s-4.8-10.72-10.71-10.72-10.72,4.8-10.72,10.72,4.8,10.71,10.72,10.71"/><path class="ccls-5" d="M101.91,27.72c5.92,0,10.71-4.8,10.71-10.71s-4.8-10.72-10.71-10.72-10.72,4.8-10.72,10.72,4.8,10.71,10.72,10.71"/><path class="ccls-1" d="M104.01,19.68c0,1.25-.64,1.88-1.95,1.88s-2.11-.57-2.11-1.52,.66-1.54,2.97-1.54h1.09v1.18Zm2.97,4.15v-6.98c0-4.22-2.45-5.49-5.17-5.49-3.22,0-4.45,1.63-4.45,2.99v.98h.11c.45-.57,1.68-1.41,3.88-1.41,1.81,0,2.63,.52,2.63,2.24v.16h-1.07c-4.49,0-6.08,1.66-6.08,3.83s2,3.88,4.9,3.88h.61c.89,0,1.69-.21,2.37-.56,.33,.23,.77,.36,1.33,.36h.93Z"/><path class="ccls-1" d="M15.6,13.88c1.63,0,2.97,1.11,2.97,4.17,0,2.22-.75,3.49-2.45,3.49s-3.06-1.66-3.06-4.2c0-1.97,1-3.47,2.54-3.47m-.02-2.56c-3.56,0-5.51,2.61-5.51,6.62,0,3.36,2.47,6.17,5.69,6.17,1.43,0,2.54-.29,3.42-.79,.34,.33,.84,.52,1.52,.52h.93V7.8c-.93-.55-1.94-.96-3.02-1.21v6.66c-.48-1.07-1.81-1.93-3.04-1.93"/><path class="ccls-1" d="M42.99,23.83V13.76c0-1.43-.75-2.18-2.52-2.18h-.54v6.87c0,2.09-.88,2.95-2.13,2.95-1.38,0-2.47-.91-2.47-3.15v-4.49c0-1.43-.77-2.18-2.52-2.18h-.57v6.96c0,3.56,2.38,5.56,5.4,5.56,1.21,0,2.21-.25,3.01-.7,.34,.27,.8,.42,1.41,.42h.93Z"/><path class="ccls-1" d="M62.51,11.12h.09v-1.02c0-1.2-1.02-1.93-2.34-1.93-3.56,0-4.76,2.77-4.76,4.49v14.45c.96,.34,1.99,.54,3.06,.59v-11.14h1.32c1.02,0,2.18-.64,2.18-1.72v-.84h-3.49v-1.09c0-1.63,.93-2.06,2.18-2.06,.75,0,1.29,.11,1.77,.27"/><path class="ccls-1" d="M76.85,12.08v7.35c0,2.86,1.5,4.54,4.58,4.54,1.77,0,2.68-.79,2.68-2.04v-1.09h-.11c-.48,.29-1.23,.43-2.2,.43-1.22,0-1.93-.61-1.93-2.2v-4.79h2.43c1.25,0,1.82-.82,1.82-1.45v-1.25h-4.24v-2.77h-.7c-.48,0-1.02,.36-1.43,.84-.66,.77-.88,1.22-.88,2.43"/><path class="ccls-6" d="M116.22,12.41c-1.67,0-3.04-1.36-3.04-3.04s1.36-3.04,3.04-3.04,3.04,1.36,3.04,3.04-1.36,3.04-3.04,3.04m0-5.49c-1.35,0-2.45,1.1-2.45,2.45s1.1,2.45,2.45,2.45,2.45-1.1,2.45-2.45-1.1-2.45-2.45-2.45m.4,3.57c-.12-.32-.23-.73-.61-.79-.08-.02-.14-.02-.31-.04v1.4h-.25c-.33,0-.43-.2-.43-.46v-2.88c.26-.08,.63-.13,.85-.13h.38c.65,0,1.1,.38,1.1,1.02,0,.36-.18,.71-.7,.84,.27,.14,.43,.49,.49,.62,.11,.21,.15,.44,.26,.63,.03,.05,.06,.1,.1,.15l.07,.1c-.12,.11-.15,.12-.31,.12-.38,0-.52-.25-.64-.57m-.63-2.37s-.12,.02-.28,.04v.97c.21,.03,.33,.02,.47,.02,.26,0,.5-.17,.5-.49,0-.42-.22-.54-.49-.54h-.19Z"/></symbol><symbol viewBox="0 -3.5 32 32" id="mail" xmlns="http://www.w3.org/2000/svg"><title>mail</title><desc>Created with Sketch Beta.</desc><defs/><g id="ePage-1" stroke-width="1" fill-rule="evenodd" xmlns:sketch="http://www.bohemiancoding.com/sketch/ns" sketch:type="MSPage"><g id="eIcon-Set-Filled" sketch:type="MSLayerGroup" transform="translate(-414.000000, -261.000000)"><path d="M430,275.916 L426.684,273.167 L415.115,285.01 L444.591,285.01 L433.235,273.147 L430,275.916 L430,275.916 Z M434.89,271.89 L445.892,283.329 C445.955,283.107 446,282.877 446,282.634 L446,262.862 L434.89,271.89 L434.89,271.89 Z M414,262.816 L414,282.634 C414,282.877 414.045,283.107 414.108,283.329 L425.147,271.927 L414,262.816 L414,262.816 Z M445,261 L415,261 L430,273.019 L445,261 L445,261 Z" id="email" sketch:type="MSShapeGroup"/></g></g></symbol><symbol viewBox="0 0 32 32" id="phone" xmlns="http://www.w3.org/2000/svg"><g id="fSVGRepo_bgCarrier" stroke-width="0"/><g id="fSVGRepo_tracerCarrier" stroke-linecap="round" stroke-linejoin="round"/><g id="fSVGRepo_iconCarrier"><title>phone</title><desc>Created with Sketch Beta.</desc><defs/><g id="fPage-1" stroke-width="1" fill-rule="evenodd" xmlns:sketch="http://www.bohemiancoding.com/sketch/ns" sketch:type="MSPage"><g id="fIcon-Set-Filled" sketch:type="MSLayerGroup" transform="translate(-258.000000, -309.000000)"><path d="M289.073,313.433 L286.195,310.563 C285.401,309.77 284.112,309.77 283.317,310.563 L279,316.303 C278.341,317.274 278.206,318.38 279,319.173 L280.762,320.93 C279.456,322.68 277.888,324.588 276.123,326.348 C274.127,328.338 271.907,330.147 269.911,331.633 L268.208,329.936 C267.414,329.143 266.305,329.277 265.33,329.936 L259.574,334.241 C258.609,334.906 258.779,336.318 259.574,337.111 L262.452,339.98 C264.042,341.566 266.109,341.058 268.208,339.98 C268.208,339.98 274.561,336.424 280,331 C285.116,325.898 289.073,319.173 289.073,319.173 C289.898,316.91 290.663,315.018 289.073,313.433" id="fphone" sketch:type="MSShapeGroup"/></g></g></g></symbol><symbol id="whatsapp" viewBox="0 0 418.135 418.135" xml:space="preserve" xmlns="http://www.w3.org/2000/svg"><g><path style="fill:#7AD06D" d="M198.929,0.242C88.5,5.5,1.356,97.466,1.691,208.02c0.102,33.672,8.231,65.454,22.571,93.536   L2.245,408.429c-1.191,5.781,4.023,10.843,9.766,9.483l104.723-24.811c26.905,13.402,57.125,21.143,89.108,21.631   c112.869,1.724,206.982-87.897,210.5-200.724C420.113,93.065,320.295-5.538,198.929,0.242z M323.886,322.197   c-30.669,30.669-71.446,47.559-114.818,47.559c-25.396,0-49.71-5.698-72.269-16.935l-14.584-7.265l-64.206,15.212l13.515-65.607   l-7.185-14.07c-11.711-22.935-17.649-47.736-17.649-73.713c0-43.373,16.89-84.149,47.559-114.819   c30.395-30.395,71.837-47.56,114.822-47.56C252.443,45,293.218,61.89,323.887,92.558c30.669,30.669,47.559,71.445,47.56,114.817   C371.446,250.361,354.281,291.803,323.886,322.197z"/><path style="fill:#7AD06D" d="M309.712,252.351l-40.169-11.534c-5.281-1.516-10.968-0.018-14.816,3.903l-9.823,10.008   c-4.142,4.22-10.427,5.576-15.909,3.358c-19.002-7.69-58.974-43.23-69.182-61.007c-2.945-5.128-2.458-11.539,1.158-16.218   l8.576-11.095c3.36-4.347,4.069-10.185,1.847-15.21l-16.9-38.223c-4.048-9.155-15.747-11.82-23.39-5.356   c-11.211,9.482-24.513,23.891-26.13,39.854c-2.851,28.144,9.219,63.622,54.862,106.222c52.73,49.215,94.956,55.717,122.449,49.057   c15.594-3.777,28.056-18.919,35.921-31.317C323.568,266.34,319.334,255.114,309.712,252.351z"/></g></symbol></svg>