<svg width="264" height="238" viewBox="0 0 264 238" fill="none" xmlns="http://www.w3.org/2000/svg">
<g clip-path="url(#clip0_3_14969)">
<path d="M243.417 26.139C227.756 8.49992 202.507 -1.66174 178.919 0.191647C161.468 1.40593 144.976 8.30819 131.936 19.8119C123.946 12.7819 114.677 7.47736 104.641 4.09014C104.386 4.02623 104.194 3.89841 103.938 3.8345C98.1212 1.98112 92.1125 0.766835 85.9759 0.255557C61.8771 -1.85347 36.7556 8.05255 20.5832 26.0751C-7.92626 57.4548 -6.71173 105.579 23.2679 135.553L40.3352 152.616C42.3808 154.662 45.6408 154.662 47.6224 152.616C49.6679 150.571 49.6679 147.312 47.6224 145.331L35.541 133.252L52.9919 97.2706C55.9963 91.0713 55.1013 83.6578 50.6268 78.3533L20.9028 42.7556C23.0762 39.3683 25.5052 36.045 28.3178 32.9774C42.4447 17.3195 64.2423 8.69165 85.2089 10.545C89.6834 10.9285 94.0302 11.6954 98.313 12.9097L107.39 65.3157L99.3997 86.2781C97.4181 91.4548 98.0573 97.3345 100.998 101.936L118.001 128.586L95.5643 193.071L80.5425 178.053C78.497 176.007 75.2369 176.007 73.2553 178.053C71.2098 180.098 71.2098 183.357 73.2553 185.338L121.453 233.526C124.393 236.466 128.229 237.936 132.064 237.936C135.899 237.936 139.735 236.466 142.675 233.526L240.732 135.489C270.712 105.515 271.927 57.3909 243.417 26.0112V26.139ZM42.8282 84.9999C44.682 87.1728 45.0655 90.2405 43.7871 92.7969L27.9343 125.455C9.78027 105.195 5.62531 76.7555 15.7251 52.7255L42.8282 84.9999ZM235.682 32.9774C249.49 48.1879 255.307 67.9999 253.197 86.9811L217.72 91.5826C216.634 91.7104 215.93 91.1352 215.675 90.8157C215.355 90.4961 214.908 89.7292 215.099 88.7067L218.871 72.3458C220.277 66.4022 217.209 60.2668 211.584 57.8383L186.654 46.9097C185.823 46.5262 185.248 45.7593 185.248 44.8646L183.65 10.2894C202.89 9.96984 222.962 18.6616 235.619 32.9774H235.682ZM165.879 182.59L185.056 148.846L217.273 144.372L166.71 194.925L165.879 182.59ZM233.381 128.267L229.418 132.229L181.22 138.94C179.622 139.131 178.216 140.09 177.449 141.496L156.227 178.819C155.715 179.714 155.524 180.737 155.588 181.759L157.186 204.575L135.452 226.304C133.662 228.094 130.658 228.094 128.868 226.304L103.81 201.252L128.74 129.673C129.251 128.203 129.06 126.541 128.229 125.199L109.883 96.4398C108.668 94.5225 108.413 92.0939 109.244 89.9849L117.745 67.6804C118.065 66.7856 118.193 65.8909 118.001 64.9322L109.691 17.1277C116.659 20.451 123.051 24.9886 128.548 30.4849C130.594 32.53 133.854 32.53 135.835 30.4849C146.127 20.1954 159.359 13.4849 173.614 11.1841L175.212 45.3119C175.467 50.1691 178.344 54.3871 182.819 56.3683L207.748 67.2969C208.771 67.7443 209.346 68.8946 209.091 70.045L205.319 86.4059C204.36 90.4322 205.511 94.7142 208.26 97.7819C210.689 100.466 214.141 101.936 217.656 101.936C218.232 101.936 218.743 101.936 219.318 101.808L251.407 97.5901C248.339 108.774 242.394 119.383 233.573 128.139L233.381 128.267Z" fill="#415F26"/>
<path d="M60.5347 170.511C63.3942 170.511 65.7124 168.194 65.7124 165.335C65.7124 162.476 63.3942 160.158 60.5347 160.158C57.6751 160.158 55.3569 162.476 55.3569 165.335C55.3569 168.194 57.6751 170.511 60.5347 170.511Z" fill="#415F26"/>
</g>
<defs>
<clipPath id="clip0_3_14969">
<rect width="264" height="238" fill="white"/>
</clipPath>
</defs>
</svg>
