<?xml version="1.0" encoding="utf-8"?>
<!-- Generator: Adobe Illustrator 26.3.1, SVG Export Plug-In . SVG Version: 6.00 Build 0)  -->
<svg version="1.1" id="Layer_1" xmlns:serif="http://www.serif.com/"
	 xmlns="http://www.w3.org/2000/svg" xmlns:xlink="http://www.w3.org/1999/xlink" x="0px" y="0px" viewBox="0 0 321.7 321.7"
	 style="enable-background:new 0 0 321.7 321.7;" xml:space="preserve">
<style type="text/css">
	.st0{fill:#F7A600;}
	.st1{fill:#FFFFFF;}
</style>
<g transform="matrix(1,0,0,1,-807.209,-1163.58)">
	<g transform="matrix(4.16667,0,0,4.16667,0,0)">
		<g transform="matrix(1,0,0,1,210.144,285.533)">
			<path class="st0" d="M22.2,70.9c21.3,0,38.6-17.3,38.6-38.6S43.5-6.3,22.2-6.3S-16.4,11-16.4,32.3S0.9,70.9,22.2,70.9"/>
		</g>
	</g>
	<g transform="matrix(4.16667,0,0,4.16667,0,0)">
		<g transform="matrix(1,0,0,1,204.69,301.945)">
			<path class="st1" d="M12.2,12.4c2.4,4.9,6.9,12.1,10.3,16.1c1.6,1.9,2.3,3.9,4.8-0.3c4.2-6.9,9.8-19.5,12.9-29.9
				c1.3-4.3,10.4-3.2,8,4.8c-5.3,18-15.4,32.3-18.3,35.7c-2.2,2.5-3.6,3.5-7.4-0.3c-2.6-2.6-10.8-14.3-14.2-25.3
				C7.5,10.5,10.5,9.1,12.2,12.4"/>
		</g>
	</g>
</g>
</svg>
