<?xml version="1.0" encoding="utf-8"?>
<!-- Uploaded to: SVG Repo, www.svgrepo.com, Generator: SVG Repo Mixer Tools -->
<svg fill="#000000" version="1.1" id="Layer_1" xmlns="http://www.w3.org/2000/svg" xmlns:xlink="http://www.w3.org/1999/xlink" 
	 width="800px" height="800px" viewBox="0 0 256 241" enable-background="new 0 0 256 241" xml:space="preserve">
<path d="M254,188V2H2v186h111v29H75v22h106v-22h-38v-29H254z M19,19h217v151H19L19,19z M181.997,49.499H74.047
	c-5.98,0-10.799,4.463-10.799,9.952v73.097c0,5.489,4.82,9.952,10.799,9.952h107.905c5.98,0,10.799-4.463,10.799-9.952V59.451
	C192.796,53.962,187.977,49.499,181.997,49.499z M183.023,131.298c0,0.669-0.625,1.25-1.339,1.25H74.36
	c-0.759,0-1.339-0.58-1.339-1.25V95.999h110.002V131.298z M183.023,69.402H73.021V60.7c0-0.669,0.625-1.25,1.339-1.25h107.28
	c0.759,0,1.339,0.58,1.339,1.25v8.702H183.023z M82.348,115.411h22.581v8.836H82.348V115.411z M113.72,115.411h32.666v8.836H113.72
	V115.411z"/>
</svg>