<?xml version="1.0" encoding="utf-8"?>
<!-- Generator: Adobe Illustrator 26.3.1, SVG Export Plug-In . SVG Version: 6.00 Build 0)  -->
<svg version="1.1" id="Layer_1" xmlns:serif="http://www.serif.com/"
	 xmlns="http://www.w3.org/2000/svg" xmlns:xlink="http://www.w3.org/1999/xlink" x="0px" y="0px" viewBox="0 0 321.7 321.7"
	 style="enable-background:new 0 0 321.7 321.7;" xml:space="preserve">
<style type="text/css">
	.st0{fill:#E98FA3;}
	.st1{fill-rule:evenodd;clip-rule:evenodd;fill:#FFFFFF;}
	.st2{fill-rule:evenodd;clip-rule:evenodd;fill:#E98FA3;}
	.st3{fill:#FFFFFF;}
</style>
<g>
	<path class="st0" d="M160.9,317C247,317,317,247,317,160.9S247,4.7,160.9,4.7C74.8,4.7,4.7,74.8,4.7,160.9S74.8,317,160.9,317"/>
	<path class="st1" d="M118.9,5.5c1.4,9,1.6,17.4-0.3,23.6c-5.6,18.5-8.4,25.3,7.2,49.2c24.2,37.2,48,64.6,26.8,73.5
		s-34.5,2.6-30.1,18.8c4.4,16.2,9.4,28-5.3,32.6c5.7,11.9,6.3,18.7-4.3,25.4c-10.6,6.7-5.8,14.8-4.8,34.2c1,19.4-7.5,38.1-28.6,36.8
		C31.9,271.7,0,220,0,160.9C0,86.5,50.4,24,118.9,5.5L118.9,5.5z"/>
	<path class="st2" d="M119.3,151.5c0.7,2.2,29-1.6,27.3-7C142.1,130.1,118.6,149.3,119.3,151.5L119.3,151.5z"/>
	<path class="st0" d="M160.9,321.7C72.2,321.7,0,249.6,0,160.9C0,72.2,72.2,0,160.9,0s160.9,72.2,160.9,160.9
		C321.7,249.6,249.6,321.7,160.9,321.7z M160.9,9.5C77.4,9.5,9.5,77.4,9.5,160.9c0,83.5,67.9,151.4,151.4,151.4
		c83.5,0,151.4-67.9,151.4-151.4C312.3,77.4,244.4,9.5,160.9,9.5z"/>
	<path class="st3" d="M164.2,190.8c6.9,0.6,12.9-4.5,13.5-11.3c0.6-6.9-4.5-12.9-11.3-13.5c-6.9-0.6-12.9,4.5-13.5,11.3
		C152.3,184.2,157.4,190.2,164.2,190.8"/>
	<path class="st3" d="M232.7,276.9c8.2,0.7,15.5-5.4,16.2-13.6c0.7-8.2-5.4-15.5-13.6-16.2c-8.2-0.7-15.5,5.4-16.2,13.6
		C218.3,268.9,224.4,276.2,232.7,276.9"/>
	<path class="st3" d="M228,236.8c6.9,0.6,12.9-4.5,13.5-11.3c0.6-6.9-4.5-12.9-11.3-13.5c-6.9-0.6-12.9,4.5-13.5,11.3
		C216.1,230.1,221.1,236.2,228,236.8"/>
	<path class="st3" d="M236.5,139.8c6.9,0.6,12.9-4.5,13.5-11.3c0.6-6.9-4.5-12.9-11.3-13.5c-6.9-0.6-12.9,4.5-13.5,11.3
		C224.6,133.2,229.6,139.2,236.5,139.8"/>
	<path class="st3" d="M196.5,164.8c5.1,0.4,9.7-3.4,10.1-8.5c0.5-5.1-3.4-9.7-8.5-10.1c-5.1-0.4-9.7,3.4-10.1,8.5
		C187.5,159.8,191.3,164.3,196.5,164.8"/>
	<path class="st3" d="M187.3,221.3c5.1,0.4,9.7-3.4,10.1-8.5c0.5-5.1-3.4-9.7-8.5-10.1c-5.1-0.4-9.7,3.4-10.1,8.5
		C178.3,216.3,182.1,220.9,187.3,221.3"/>
	<path class="st3" d="M266.7,229.1c5.1,0.4,9.7-3.4,10.1-8.5c0.5-5.1-3.4-9.7-8.5-10.1c-5.1-0.4-9.7,3.4-10.1,8.5
		C257.8,224.1,261.6,228.6,266.7,229.1"/>
	<path class="st3" d="M280.1,127.7c8.9,0.8,16.8-5.8,17.6-14.7c0.8-8.9-5.8-16.8-14.7-17.6c-8.9-0.8-16.8,5.8-17.6,14.7
		C264.5,119.1,271.1,127,280.1,127.7"/>
	<path class="st3" d="M280.1,182.4c9.4,0.8,17.6-6.1,18.4-15.5c0.8-9.4-6.1-17.6-15.5-18.4c-9.4-0.8-17.6,6.1-18.4,15.5
		C263.8,173.3,270.8,181.6,280.1,182.4"/>
	<path class="st3" d="M230.3,197.4c9.3,0.8,17.4-6,18.2-15.3c0.8-9.3-6-17.4-15.3-18.2c-9.3-0.8-17.4,6-18.2,15.3
		C214.2,188.5,221,196.6,230.3,197.4"/>
</g>
</svg>
