<?xml version="1.0" encoding="utf-8"?><!DOCTYPE svg PUBLIC "-//W3C//DTD SVG 1.1//EN" "http://www.w3.org/Graphics/SVG/1.1/DTD/svg11.dtd"><svg viewBox="0 0 800 800" xmlns="http://www.w3.org/2000/svg" xmlns:xlink="http://www.w3.org/1999/xlink"><style>:root>svg{display:none}:root>svg:target{display:block}</style><svg viewBox="0 0 24 24" fill="none" id="arrow-left" xmlns="http://www.w3.org/2000/svg"><path d="M6 12h12M6 12l5-5m-5 5 5 5" stroke="#000" stroke-width="2" stroke-linecap="round" stroke-linejoin="round"/></svg><svg viewBox="0 0 24 24" fill="none" id="arrow-right" xmlns="http://www.w3.org/2000/svg"><path d="M6 12h12m0 0-5-5m5 5-5 5" stroke="#000" stroke-width="2" stroke-linecap="round" stroke-linejoin="round"/></svg><svg viewBox="0 0 390.3 135.76" style="enable-background:new 0 0 390.3 135.76" xml:space="preserve" id="logo" xmlns="http://www.w3.org/2000/svg"><path d="M286.5 70.83c-10.01 0-17.64 2.77-22.89 8.31-5.25 5.54-7.87 13.55-7.87 24.05 0 10.61 2.64 18.7 7.92 24.25 5.28 5.55 12.86 8.33 22.76 8.33 10.04 0 17.66-2.76 22.87-8.28 5.21-5.52 7.81-13.59 7.81-24.2 0-10.64-2.59-18.71-7.77-24.2-5.19-5.51-12.79-8.26-22.83-8.26zm9.51 46.29c-2.09 2.96-5.29 4.44-9.6 4.44-8.49 0-12.73-6.1-12.73-18.29 0-12.31 4.27-18.47 12.81-18.47 4.2 0 7.36 1.5 9.47 4.51s3.17 7.66 3.17 13.96c.01 6.27-1.03 10.89-3.12 13.85zm-56.88-45.3h16.44l-15.53 63.08h-20.15l-6.04-27.48c-.29-1.15-.74-3.44-1.36-6.86-.62-3.42-1.07-6.28-1.36-8.58-.23 1.87-.6 4.19-1.12 6.97-.52 2.78-1.03 5.33-1.53 7.66s-2.6 11.76-6.28 28.3h-20.15l-15.62-63.08h16.44l6.86 31.63c1.55 6.99 2.62 12.55 3.19 16.7.37-2.93 1.04-6.92 2.01-11.95.96-5.03 1.86-9.2 2.7-12.51l5.57-23.86h15.79l5.39 23.86c.92 3.83 1.86 8.24 2.8 13.25.95 5 1.58 8.75 1.9 11.22.37-3.19 1.39-8.73 3.06-16.61l6.99-31.74zm-93.57 0h17.13v63.08h-17.13v-25.71h-19.8v25.71h-17.13V71.82h17.13V95.2h19.8V71.82zm202.72 24.03-3.58-5.99c1.54-.62 2.31-1.79 2.31-3.51 0-1.38-.41-2.41-1.22-3.09-.81-.68-2.1-1.03-3.85-1.03h-3.95v13.62h2.85v-5.22h1.36l2.9 5.22h3.18zm-4.71-7.94c-.38.35-.95.53-1.69.53h-1.04v-3.98h1.01c.79 0 1.38.14 1.74.43.37.29.55.79.55 1.52 0 .65-.19 1.15-.57 1.5zM27.66 97.97h27.22v34c-7.39 2.53-15.52 3.8-24.38 3.8-9.72 0-17.24-2.82-22.54-8.46C2.65 121.67 0 113.63 0 103.19 0 93 2.9 85.08 8.71 79.41c5.81-5.67 13.95-8.5 24.42-8.5 3.97 0 7.72.37 11.24 1.12 3.52.75 6.59 1.7 9.21 2.85l-5.39 13.37c-4.54-2.24-9.53-3.37-14.97-3.37-4.98 0-8.82 1.62-11.54 4.85-2.72 3.24-4.08 7.86-4.08 13.87 0 5.9 1.23 10.39 3.69 13.48s6 4.64 10.64 4.64c2.53 0 4.86-.24 6.99-.73v-9.88H27.66V97.97zm312.56 2.16c.71.14 1.43.23 2.19.23 2.09 0 4.02-.52 5.78-1.57 1.76-1.05 3.13-2.44 4.1-4.18s1.46-3.6 1.46-5.58c0-2.03-.51-3.93-1.52-5.69-1.02-1.76-2.4-3.14-4.16-4.15a11.19 11.19 0 0 0-5.66-1.51c-.75 0-1.47.09-2.19.23v-6.1h-17.04v63.08h41.33v-13.76h-24.29v-21zm-6.03-6.34a9.3 9.3 0 0 1-1.27-4.76c0-1.72.43-3.31 1.3-4.78a9.392 9.392 0 0 1 3.48-3.46 9.326 9.326 0 0 1 4.71-1.25c1.68 0 3.26.42 4.73 1.27s2.63 2 3.49 3.48a9.317 9.317 0 0 1 1.27 4.75c0 1.7-.42 3.28-1.26 4.73a9.44 9.44 0 0 1-3.46 3.47 9.283 9.283 0 0 1-4.77 1.29c-1.69 0-3.27-.42-4.74-1.27a9.42 9.42 0 0 1-3.48-3.47zM63.5 71.82h37.45V85.5H80.54v9.92h18.9v13.68h-18.9v11.91h20.41v13.89H63.5V71.82z" style="fill-rule:evenodd;clip-rule:evenodd"/><path d="M309.3 6.27c.81-1.44 1.73-2.45 3.41-2.81 2.09-.45 3.94.76 5.72 2.4 2.33 2.15 6.32 7.43 4.2 12.07-.86 1.88-3.28 2.96-5.27 3.14-2.27.21-4.55-1.01-6.09-3.14-3-4.17-3.41-9.1-1.97-11.66zm42.89 5.99c-.5 1.05.11 2.54 1.09 3.66 1.01 1.17 2.82 2.46 5.19 1.94.69-.15 1.27-.43 1.7-.99.63-.82.35-2.84-.92-4.38-1.25-1.52-3.42-2.26-4.78-1.94-1.18.27-1.73.57-2.28 1.71zm-27.37 8.37c-2.26 1.15-3.94 2.35-4.53 4.44-1.22 4.38.36 10.77 3.52 14.02 3.94 4.06 8.97 5.14 13.8 4.74 2.32-.19 5.11-.12 7.5.9 3.76 1.61 9.15 6.41 11.2 9.09 3.21 4.19 5.06 8.73 6.38 13.53 1.76 6.45 1.97 11.59 1.05 17.9-.68 4.67-1.23 6.12.34 10.51 1.6 4.49 6.03 9.88 10.07 11.43 2.74 1.05 5.07 1.17 7.85.18 3.36-1.21 5.25-2.83 6.98-6.11 2.26-4.28 1.67-11.53-2.02-17.52-2.19-3.56-3.25-5.23-4.69-8.87-2.68-6.79-3.08-11.8-4.39-19.42-1.01-5.87-1.81-9.54-2.95-14.24-1.79-7.4-4.27-14.15-7.37-17.49-3.07-3.31-4.12-3.41-9.03-3.82-3.29-.27-5.72-1.77-8.11-2.3-6.71-1.47-13.09-.82-18.11.33-3 .67-5.04 1.45-7.49 2.7zm18.14-15.05c-1.49-.03-2.56.77-3.11 1.74-.92 1.57-.02 4.08 1.26 5.26 1.2 1.11 3.7 1.88 5.15 1.42.9-.28 1.65-.85 2.15-1.88.63-1.32-.41-4.31-2.15-5.52-1.03-.71-2.3-1.04-3.3-1.02zm-12.33-1s-.07.16-.11.35c-.03.16-.02.42-.02.42s-.05-.15-.08-.29c-.03-.12-.13-.35-.24-.63-.84-1.73-2.51-4.48-4.95-4.43-1.56.04-2.77.6-3.66 2.04-1.6 2.56.05 6.26 1.6 7.72 1.37 1.29 2.96 2.02 4.46 1.77 1.94-.33 2.66-1.88 3.07-3.74 0 0 .51 1.16 1.02 1.91 1.01 1.49 2.07 2.33 3.83 2.23 1.41-.08 2.47-.61 3.06-1.95.88-1.97.03-4.83-1.49-6.38-1.1-1.12-2.84-1.42-4.32-.94-.72.24-1.68.77-2.17 1.92z"/></svg><svg id="logo-bg" viewBox="0 0 124.72 34.02" xmlns="http://www.w3.org/2000/svg"><defs><style>.ccls-1{fill:#fff}.ccls-6{fill:#8dc63f}</style></defs><path d="M50.56 18.43s-.02 0-.02.01.02 0 .02-.01" style="fill:#bdd753"/><path class="ccls-6" d="M16.19 27.72c5.92 0 10.71-4.8 10.71-10.71S22.1 6.29 16.19 6.29 5.47 11.09 5.47 17.01s4.8 10.71 10.72 10.71"/><path d="M37.62 27.72c5.92 0 10.71-4.8 10.71-10.71S43.53 6.29 37.62 6.29 26.9 11.09 26.9 17.01s4.8 10.71 10.72 10.71" style="fill:#e88c9f"/><path d="M59.05 27.72c5.92 0 10.72-4.8 10.72-10.71S64.97 6.29 59.05 6.29s-10.72 4.8-10.72 10.72 4.8 10.71 10.72 10.71" style="fill:#ffcc40"/><path d="M80.48 27.72c5.92 0 10.71-4.8 10.71-10.71S86.39 6.29 80.48 6.29s-10.72 4.8-10.72 10.72 4.8 10.71 10.72 10.71" style="fill:#faa61a"/><path d="M101.91 27.72c5.92 0 10.71-4.8 10.71-10.71s-4.8-10.72-10.71-10.72-10.72 4.8-10.72 10.72 4.8 10.71 10.72 10.71" style="fill:#87b7e2"/><path class="ccls-1" d="M104.01 19.68c0 1.25-.64 1.88-1.95 1.88s-2.11-.57-2.11-1.52.66-1.54 2.97-1.54h1.09v1.18Zm2.97 4.15v-6.98c0-4.22-2.45-5.49-5.17-5.49-3.22 0-4.45 1.63-4.45 2.99v.98h.11c.45-.57 1.68-1.41 3.88-1.41 1.81 0 2.63.52 2.63 2.24v.16h-1.07c-4.49 0-6.08 1.66-6.08 3.83s2 3.88 4.9 3.88h.61c.89 0 1.69-.21 2.37-.56.33.23.77.36 1.33.36h.93ZM15.6 13.88c1.63 0 2.97 1.11 2.97 4.17 0 2.22-.75 3.49-2.45 3.49s-3.06-1.66-3.06-4.2c0-1.97 1-3.47 2.54-3.47m-.02-2.56c-3.56 0-5.51 2.61-5.51 6.62 0 3.36 2.47 6.17 5.69 6.17 1.43 0 2.54-.29 3.42-.79.34.33.84.52 1.52.52h.93V7.8c-.93-.55-1.94-.96-3.02-1.21v6.66c-.48-1.07-1.81-1.93-3.04-1.93M42.99 23.83V13.76c0-1.43-.75-2.18-2.52-2.18h-.54v6.87c0 2.09-.88 2.95-2.13 2.95-1.38 0-2.47-.91-2.47-3.15v-4.49c0-1.43-.77-2.18-2.52-2.18h-.57v6.96c0 3.56 2.38 5.56 5.4 5.56 1.21 0 2.21-.25 3.01-.7.34.27.8.42 1.41.42h.93ZM62.51 11.12h.09V10.1c0-1.2-1.02-1.93-2.34-1.93-3.56 0-4.76 2.77-4.76 4.49v14.45c.96.34 1.99.54 3.06.59V16.56h1.32c1.02 0 2.18-.64 2.18-1.72V14h-3.49v-1.09c0-1.63.93-2.06 2.18-2.06.75 0 1.29.11 1.77.27M76.85 12.08v7.35c0 2.86 1.5 4.54 4.58 4.54 1.77 0 2.68-.79 2.68-2.04v-1.09H84c-.48.29-1.23.43-2.2.43-1.22 0-1.93-.61-1.93-2.2v-4.79h2.43c1.25 0 1.82-.82 1.82-1.45v-1.25h-4.24V8.81h-.7c-.48 0-1.02.36-1.43.84-.66.77-.88 1.22-.88 2.43"/><path class="ccls-6" d="M116.22 12.41c-1.67 0-3.04-1.36-3.04-3.04s1.36-3.04 3.04-3.04 3.04 1.36 3.04 3.04-1.36 3.04-3.04 3.04m0-5.49c-1.35 0-2.45 1.1-2.45 2.45s1.1 2.45 2.45 2.45 2.45-1.1 2.45-2.45-1.1-2.45-2.45-2.45m.4 3.57c-.12-.32-.23-.73-.61-.79-.08-.02-.14-.02-.31-.04v1.4h-.25c-.33 0-.43-.2-.43-.46V7.72c.26-.08.63-.13.85-.13h.38c.65 0 1.1.38 1.1 1.02 0 .36-.18.71-.7.84.27.14.43.49.49.62.11.21.15.44.26.63.03.05.06.1.1.15l.07.1c-.12.11-.15.12-.31.12-.38 0-.52-.25-.64-.57m-.63-2.37s-.12.02-.28.04v.97c.21.03.33.02.47.02.26 0 .5-.17.5-.49 0-.42-.22-.54-.49-.54H116Z"/></svg><svg viewBox="0 -3.5 32 32" id="mail" xmlns="http://www.w3.org/2000/svg"><path d="m16 14.916-3.316-2.749L1.115 24.01h29.476L19.235 12.147 16 14.916Zm4.89-4.026 11.002 11.439a2.53 2.53 0 0 0 .108-.695V1.862L20.89 10.89ZM0 1.816v19.818c0 .243.045.473.108.695l11.039-11.402L0 1.816ZM31 0H1l15 12.019L31 0Z" fill="#000" fill-rule="evenodd"/></svg><svg viewBox="0 0 32 32" transform="scale(-1 1)" id="phone" xmlns="http://www.w3.org/2000/svg"><path d="m31.073 4.433-2.878-2.87a2.038 2.038 0 0 0-2.878 0L21 7.303c-.659.971-.794 2.077 0 2.87l1.762 1.757c-1.306 1.75-2.874 3.658-4.639 5.418-1.996 1.99-4.216 3.799-6.212 5.285l-1.703-1.697c-.794-.793-1.903-.659-2.878 0l-5.756 4.305c-.965.665-.795 2.077 0 2.87l2.878 2.869c1.59 1.586 3.657 1.078 5.756 0 0 0 6.353-3.556 11.792-8.98 5.116-5.102 9.073-11.827 9.073-11.827.825-2.263 1.59-4.155 0-5.74" fill="#000" fill-rule="evenodd"/></svg><svg viewBox="0 0 418.135 418.135" xml:space="preserve" id="whatsapp" xmlns="http://www.w3.org/2000/svg"><path style="fill:#7ad06d" d="M198.929.242C88.5 5.5 1.356 97.466 1.691 208.02c.102 33.672 8.231 65.454 22.571 93.536L2.245 408.429c-1.191 5.781 4.023 10.843 9.766 9.483l104.723-24.811c26.905 13.402 57.125 21.143 89.108 21.631 112.869 1.724 206.982-87.897 210.5-200.724C420.113 93.065 320.295-5.538 198.929.242zm124.957 321.955c-30.669 30.669-71.446 47.559-114.818 47.559-25.396 0-49.71-5.698-72.269-16.935l-14.584-7.265-64.206 15.212 13.515-65.607-7.185-14.07c-11.711-22.935-17.649-47.736-17.649-73.713 0-43.373 16.89-84.149 47.559-114.819 30.395-30.395 71.837-47.56 114.822-47.56 43.372.001 84.147 16.891 114.816 47.559 30.669 30.669 47.559 71.445 47.56 114.817-.001 42.986-17.166 84.428-47.561 114.822z"/><path style="fill:#7ad06d" d="m309.712 252.351-40.169-11.534a14.971 14.971 0 0 0-14.816 3.903l-9.823 10.008c-4.142 4.22-10.427 5.576-15.909 3.358-19.002-7.69-58.974-43.23-69.182-61.007-2.945-5.128-2.458-11.539 1.158-16.218l8.576-11.095a14.97 14.97 0 0 0 1.847-15.21l-16.9-38.223c-4.048-9.155-15.747-11.82-23.39-5.356-11.211 9.482-24.513 23.891-26.13 39.854-2.851 28.144 9.219 63.622 54.862 106.222 52.73 49.215 94.956 55.717 122.449 49.057 15.594-3.777 28.056-18.919 35.921-31.317 5.362-8.453 1.128-19.679-8.494-22.442z"/></svg></svg>