<svg width="187" height="238" viewBox="0 0 187 238" fill="none" xmlns="http://www.w3.org/2000/svg">
<g clip-path="url(#clip0_3_13302)">
<path d="M131.338 99.0829H54.6551C52.1089 99.0829 49.9772 97.0113 49.9772 94.407V73.7499C49.9772 71.2048 52.0497 69.074 54.6551 69.074H131.338C133.884 69.074 136.016 71.1456 136.016 73.7499V94.407C136.016 96.9521 133.944 99.0829 131.338 99.0829ZM58.9778 89.0799H126.956V78.0707H58.9778V89.0799Z" fill="#415F26"/>
<path d="M168.407 18.1119H116.89C114.284 7.63541 104.751 0 93.5 0C82.2492 0 72.7156 7.6946 70.1102 18.1119H18.5342C8.29006 18.1119 0 26.3984 0 36.6381V219.415C0 229.654 8.29006 237.941 18.5342 237.941H168.407C178.651 237.941 186.941 229.654 186.941 219.415V36.6381C186.941 26.3984 178.592 18.1119 168.347 18.1119H168.407ZM54.5959 55.1052H131.279C133.825 55.1052 135.957 53.0336 135.957 50.4292V48.0617H155.971V207.991H30.0219V48.1209H50.0364V53.2111C50.0364 55.6379 52.9379 56.8217 54.6552 55.1052H54.5959ZM73.6039 27.1087C76.0909 27.1087 78.1634 25.2146 78.2226 22.7287C78.5779 14.7973 85.0915 8.64163 92.9671 8.64163C100.843 8.64163 107.356 14.8565 107.712 22.7287C107.83 25.1554 109.902 27.1087 112.33 27.1087H126.897V46.1084H58.9186V27.1087H73.4854H73.6039ZM177.999 219.77C177.999 224.86 173.854 229.062 168.703 229.062H18.2381C13.1457 229.062 9.00063 224.919 9.00063 219.829V36.3422C9.00063 31.2519 13.1457 27.1087 18.2381 27.1087H49.9772V39.1241H25.64C23.0937 39.1241 20.962 41.1957 20.962 43.8001V212.43C20.962 214.975 23.0345 217.106 25.64 217.106H161.301C163.847 217.106 165.979 215.035 165.979 212.43V43.8001C165.979 41.2549 163.906 39.1241 161.301 39.1241H136.964V27.1087H168.703C173.795 27.1087 177.94 31.2519 177.94 36.3422V219.711L177.999 219.77Z" fill="#415F26"/>
<path d="M40.266 122.699C40.2068 123.824 38.9633 149.808 54.1815 161.054C60.1029 165.493 67.5048 166.855 74.3145 166.855C82.7229 166.855 90.3024 164.783 93.4408 163.777C96.5792 164.783 104.159 166.855 112.567 166.855C119.377 166.855 126.779 165.493 132.7 161.054C147.918 149.749 146.675 123.765 146.616 122.699C146.497 120.805 145.313 119.207 143.536 118.556C142.53 118.201 118.074 109.559 102.797 120.805C98.8886 123.646 95.7502 127.731 93.3816 132.88C91.013 127.731 87.8746 123.646 83.9665 120.805C68.6891 109.619 44.2334 118.201 43.2267 118.556C41.4503 119.207 40.266 120.805 40.1476 122.699H40.266ZM108.244 128.322C116.89 121.989 131.101 124.771 137.319 126.428C137.141 134.064 135.128 147.677 127.075 153.596C118.429 159.989 104.099 157.148 98.0003 155.431C98.1188 148.861 99.836 134.478 108.244 128.263V128.322ZM78.7556 128.322C87.2233 134.537 88.8813 148.92 88.9997 155.49C81.6571 157.503 67.9785 159.574 59.9253 153.596C51.3392 147.204 49.918 132.762 49.7404 126.369C57.083 124.357 70.7024 122.403 78.7556 128.263V128.322Z" fill="#415F26"/>
<path d="M93.3816 191.951C91.4275 191.951 89.6511 190.708 88.9997 188.873C88.3484 187.038 88.9405 184.966 90.4209 183.723C91.9605 182.481 94.1514 182.362 95.8094 183.368C97.4082 184.375 98.2964 186.328 97.9411 188.163C97.5266 190.353 95.5726 191.951 93.3816 191.951Z" fill="#415F26"/>
<path d="M72.1235 192.069H53.4708C51.1023 192.069 48.9705 190.353 48.7337 187.985C48.4968 185.321 50.5693 183.072 53.234 183.072H71.8866C74.2552 183.072 76.3869 184.789 76.6238 187.156C76.8606 189.82 74.7881 192.069 72.1235 192.069Z" fill="#415F26"/>
<path d="M133.766 192.069H115.113C112.745 192.069 110.613 190.353 110.376 187.985C110.139 185.321 112.212 183.072 114.876 183.072H133.529C135.898 183.072 138.029 184.789 138.266 187.156C138.503 189.82 136.431 192.069 133.766 192.069Z" fill="#415F26"/>
</g>
<defs>
<clipPath id="clip0_3_13302">
<rect width="187" height="238" fill="white"/>
</clipPath>
</defs>
</svg>
