<svg width="220" height="238" viewBox="0 0 220 238" fill="none" xmlns="http://www.w3.org/2000/svg">
<g clip-path="url(#clip0_2_7111)">
<path d="M203.481 130.123H165.053C162.743 130.123 160.643 131.802 160.293 134.111C159.873 136.979 162.113 139.428 164.913 139.428H203.481C205.231 139.428 206.701 140.897 206.701 142.646V163.144H81.1965V142.646C81.1965 140.897 82.6664 139.428 84.4164 139.428H122.915C125.225 139.428 127.324 137.749 127.674 135.44C128.094 132.572 125.854 130.123 123.055 130.123H109.125L119.625 15.1111C119.975 11.2634 118.645 7.34569 116.055 4.47738C113.465 1.60907 109.685 -0.0699463 105.765 -0.0699463H13.8596C10.0097 1.25542e-05 6.22992 1.67902 3.64003 4.54734C0.980155 7.41565 -0.279787 11.2634 0.000199985 15.1111L16.0295 190.148V221.909C16.0295 230.794 23.2391 238 32.1287 238H190.672C204.671 238 216.01 226.667 216.01 212.675V177.136C216.01 174.897 215.52 172.798 214.61 170.979C215.52 170.14 216.01 168.951 216.01 167.621V142.646C216.01 135.79 210.411 130.193 203.481 130.193V130.123ZM84.4164 130.123C77.4867 130.123 71.8869 135.72 71.8869 142.646V167.481C71.8869 168.811 72.4469 170 73.2869 170.84C72.3769 172.728 71.8869 174.827 71.8869 176.996V184.971H25.1991L11.1297 30.642H108.915L99.8157 130.123H84.4164ZM14.2796 9.30454H105.765C106.955 9.30454 108.075 9.72429 108.985 10.4938C110.105 11.4733 110.595 12.9424 110.455 14.4115L109.825 21.4074H10.2197L9.58976 14.4115C9.44977 12.9424 10.0097 11.5432 11.0597 10.4938C11.8997 9.72429 13.0896 9.30454 14.2796 9.30454ZM25.339 221.909V194.276H71.8169V210.086C71.8169 210.086 71.8169 210.086 71.7469 210.086H48.158C42.9782 210.086 38.7784 214.284 38.7784 219.461V228.695H32.1987C28.3489 228.695 25.2691 225.617 25.2691 221.909H25.339ZM48.158 228.695V219.461C48.158 219.461 48.158 219.391 48.228 219.391H71.8169C71.8169 219.391 71.8869 219.391 71.8869 219.461V228.695H48.158ZM206.771 212.885C206.771 221.84 199.491 229.185 190.462 229.185H97.1558C88.3362 229.185 81.1265 222.049 81.1265 213.165V177.346C81.1265 174.617 83.2964 172.449 86.0263 172.449H201.801C204.531 172.449 206.701 174.617 206.701 177.346V212.885H206.771Z" fill="#415F26"/>
<path d="M170.442 185.881H117.455C114.865 185.881 112.835 187.979 112.835 190.498V210.926C112.835 213.514 114.935 215.543 117.455 215.543H170.442C173.032 215.543 175.062 213.444 175.062 210.926V190.498C175.062 187.909 172.962 185.881 170.442 185.881ZM165.823 206.379H122.075V195.255H165.823V206.379Z" fill="#415F26"/>
<path d="M65.6569 78.9835C64.2569 77.3045 62.227 76.3951 59.9871 76.3951C57.7472 76.3951 55.7873 77.3745 54.3174 78.9835L45.0778 89.8971C38.5681 97.5926 39.0581 109.136 46.1977 116.272C49.9076 119.979 54.8074 122.008 59.9871 122.008C65.1669 122.008 70.0667 119.979 73.7765 116.272C80.9162 109.136 81.3362 97.5926 74.8964 89.8971L65.6569 78.9835ZM67.2668 109.695C65.3069 111.654 62.787 112.704 60.0571 112.704C57.3272 112.704 54.8074 111.654 52.8474 109.695C49.1376 105.988 48.8576 99.9012 52.2875 95.9136L60.0571 86.679L67.8268 95.9136C71.1866 99.9012 70.9766 105.988 67.2668 109.695Z" fill="#415F26"/>
<path d="M218.53 51.5597C211.11 44.7737 201.941 40.5062 192.071 39.3169C179.332 37.7778 166.732 41.2757 156.653 49.251C146.643 57.1564 140.274 68.4897 138.804 81.0823C138.174 86.2593 138.454 91.4362 139.504 96.4733C137.684 100.741 136.494 105.218 135.934 109.905C135.654 112.424 137.474 114.733 139.994 115.082C140.204 115.082 140.343 115.082 140.553 115.082C142.863 115.082 144.893 113.333 145.173 110.955C145.523 107.947 146.223 105.008 147.203 102.21C150.423 103.329 153.783 104.099 157.213 104.519C159.173 104.728 161.063 104.868 163.022 104.868C183.182 104.868 201.661 91.9259 208.31 72.5473C210.2 67.0906 213.63 62.2634 218.39 58.5556C219.44 57.7161 220.14 56.4568 220.21 55.0576C220.21 53.6585 219.72 52.3992 218.74 51.4198L218.53 51.5597ZM199.351 69.6091C193.541 86.749 176.252 97.5926 158.193 95.3539C155.813 95.0741 153.433 94.5144 151.193 93.8148C154.623 88.5679 159.243 84.0906 164.912 80.8724C167.152 79.6132 167.922 76.7449 166.592 74.5062C165.332 72.2675 162.462 71.498 160.223 72.8272C155.533 75.5556 151.333 78.9836 147.833 82.9712C147.833 82.6914 147.833 82.4115 147.903 82.1317C149.093 71.9877 154.203 62.893 162.253 56.5268C170.372 50.0906 180.522 47.2922 190.811 48.5515C197.111 49.321 202.991 51.5597 208.1 55.1975C204.111 59.3251 201.101 64.2222 199.281 69.6091H199.351Z" fill="#415F26"/>
<path d="M144.053 139.358C146.605 139.358 148.673 137.291 148.673 134.741C148.673 132.191 146.605 130.123 144.053 130.123C141.502 130.123 139.434 132.191 139.434 134.741C139.434 137.291 141.502 139.358 144.053 139.358Z" fill="#415F26"/>
</g>
<defs>
<clipPath id="clip0_2_7111">
<rect width="220" height="238" fill="white"/>
</clipPath>
</defs>
</svg>
