<svg width="275" height="234" viewBox="0 0 275 234" fill="none" xmlns="http://www.w3.org/2000/svg">
<g clip-path="url(#clip0_3_13859)">
<path d="M125.734 68.1328C124.259 68.1328 120.326 68.1328 106.699 56.8125C100.587 51.75 92.931 44.5781 89.7701 39.7969C87.4521 36.2812 84.5019 30.7969 84.9234 22.9922C85.6258 10.125 96.0217 0 108.595 0C115.9 0 121.941 4.28906 125.734 7.94531C129.527 4.28906 135.498 0 142.944 0C155.587 0 165.983 10.0547 166.616 22.9922C167.037 30.7969 164.017 36.2812 161.769 39.7969C158.608 44.5781 150.951 51.75 144.77 56.8125C131.073 68.2031 127.209 68.2031 125.734 68.2031V68.1328ZM108.525 10.6875C101.711 10.6875 95.8812 16.4531 95.53 23.4844C95.3193 27.0703 96.3027 30.1641 98.6909 33.8203C102.905 40.2188 120.466 54.9844 125.734 57.2344C131.003 54.9141 148.633 40.2188 152.848 33.8203C155.236 30.2344 156.149 27.1406 155.939 23.4844C155.587 16.3828 149.757 10.6875 142.944 10.6875C137.114 10.6875 131.775 16.7344 130.16 19.0547C129.176 20.5312 127.561 21.375 125.805 21.4453C124.049 21.4453 122.363 20.6016 121.379 19.1953C119.693 16.875 114.074 10.6875 108.525 10.6875Z" fill="#415F26"/>
<path d="M196.89 144.211C195.275 144.211 190.287 144.211 172.586 129.445C164.508 122.766 154.393 113.344 150.319 107.016C147.369 102.586 143.576 95.4844 144.068 85.6406C144.489 77.9062 147.72 70.6641 153.27 65.25C158.889 59.6953 166.194 56.6719 173.921 56.6719C183.825 56.6719 192.114 63.2109 196.89 68.1328C201.596 63.2109 209.674 56.6719 220 56.6719C227.727 56.6719 235.032 59.6953 240.651 65.25C246.201 70.6641 249.432 77.9062 249.853 85.6406C250.345 95.5547 246.552 102.586 243.602 107.016C239.528 113.273 229.342 122.625 221.194 129.375C203.353 144.141 198.506 144.141 196.89 144.141V144.211ZM173.921 67.4297C163.876 67.4297 155.307 75.8672 154.745 86.2734C154.464 91.5469 155.798 95.9766 159.24 101.18C161.909 105.258 169.706 113.062 178.487 120.445C188.321 128.742 194.713 132.68 196.89 133.383C199.068 132.609 205.46 128.672 215.364 120.375C224.215 112.922 232.012 105.188 234.681 101.18C238.123 95.9766 239.457 91.5469 239.176 86.2734C238.614 75.8672 230.045 67.4297 220 67.4297C209.955 67.4297 201.526 79.3125 201.456 79.4531C200.473 80.9297 198.857 81.8438 197.101 81.8438C195.345 81.8438 193.659 81 192.676 79.5937C190.287 76.2187 182.28 67.5 174.061 67.5L173.921 67.4297Z" fill="#415F26"/>
<path d="M97.7779 197.578C95.5301 197.578 93.4931 196.172 92.7204 194.063C91.9477 192.024 92.5799 189.633 94.1955 188.227C95.9516 186.68 98.5506 186.469 100.517 187.734C102.344 188.859 103.327 191.109 102.976 193.289C102.484 195.75 100.236 197.649 97.7076 197.649L97.7779 197.578Z" fill="#415F26"/>
<path d="M273.384 161.508C269.31 152.156 258.282 147.726 248.87 151.734L211.711 167.414C210.798 163.828 209.042 161.297 207.497 159.539C203.985 155.672 198.787 153.562 193.027 153.562C192.957 153.562 192.886 153.562 192.816 153.562C165.351 154.758 134.655 155.391 128.404 154.476C114.144 142.172 99.3231 136.758 85.4853 138.937C73.1226 140.906 62.1647 148.851 53.5951 162.141H5.33844C2.38825 162.141 0 164.531 0 167.484V220.57C0 221.062 0 221.555 0.210728 222.047C0.913154 224.508 3.16092 226.055 5.47893 226.055L56.1239 225.773C72.6309 233.086 80.5683 234 93.0013 234C94.8978 234 177.854 233.93 177.854 233.93C186.986 233.93 195.837 231.258 203.423 226.266L266.501 184.711C274.157 179.648 277.037 169.945 273.384 161.508ZM259.336 176.133L197.101 217.125C191.341 220.922 184.598 222.961 177.714 222.961H105.785C102.625 222.961 99.8148 222.961 97.2861 222.961C81.341 223.101 75.9323 223.172 58.6526 215.367C57.9502 215.086 57.1775 214.875 56.4751 214.875L11.0983 215.086V172.476H55.3512C57.6692 173.109 60.1277 172.055 61.3218 170.016C68.5568 157.641 77.2669 150.539 87.3116 148.992C98.129 147.234 110.211 152.086 122.152 162.844C122.152 162.844 122.152 162.844 122.222 162.914C124.189 164.601 125.594 165.797 160.434 164.953C175.958 164.601 191.341 163.898 192.816 163.898C194.783 163.898 197.382 164.391 199.278 166.43C200.613 167.906 201.315 169.945 201.386 172.476C191.762 181.547 178.978 186.68 165.843 186.68H122.082C119.693 186.68 117.516 188.156 116.814 190.406C115.619 194.203 118.429 197.719 122.082 197.719H166.054C182.139 197.719 197.803 191.32 209.323 180.211L251.96 162.211C255.964 160.523 260.53 162.351 262.286 166.359C263.831 169.875 262.637 174.023 259.406 176.133H259.336Z" fill="#415F26"/>
</g>
<defs>
<clipPath id="clip0_3_13859">
<rect width="275" height="234" fill="white"/>
</clipPath>
</defs>
</svg>
