<svg width="238" height="238" viewBox="0 0 238 238" fill="none" xmlns="http://www.w3.org/2000/svg">
<g clip-path="url(#clip0_3_14412)">
<path d="M56.6078 72.0818C59.1703 72.0818 61.2477 70.0006 61.2477 67.4333C61.2477 64.8661 59.1703 62.7849 56.6078 62.7849C54.0452 62.7849 51.9678 64.8661 51.9678 67.4333C51.9678 70.0006 54.0452 72.0818 56.6078 72.0818Z" fill="#415F26"/>
<path d="M74.982 55.3473H112.349C114.886 55.3473 116.989 53.24 116.989 50.6989V23.1182C116.989 20.577 114.886 18.4697 112.349 18.4697H74.982C72.4455 18.4697 70.342 20.577 70.342 23.1182V50.6989C70.342 53.24 72.4455 55.3473 74.982 55.3473ZM80.1788 27.6426H107.771V46.1124H80.1788V27.6426Z" fill="#415F26"/>
<path d="M130.971 36.8775H162.956C165.492 36.8775 167.72 34.8942 167.782 32.415C167.843 29.9358 165.74 27.7046 163.203 27.7046H131.219C128.682 27.7046 126.455 29.6879 126.393 32.1671C126.331 34.6463 128.435 36.8775 130.971 36.8775Z" fill="#415F26"/>
<path d="M130.971 55.9671H162.956C165.492 55.9671 167.72 53.9838 167.782 51.5046C167.843 49.0254 165.74 46.7942 163.203 46.7942H131.219C128.682 46.7942 126.455 48.7775 126.393 51.2567C126.331 53.7359 128.435 55.9671 130.971 55.9671Z" fill="#415F26"/>
<path d="M75.5389 74.4371H162.771C165.307 74.4371 167.534 72.4537 167.596 69.9746C167.658 67.4954 165.555 65.2642 163.018 65.2642H75.7864C73.2499 65.2642 71.0227 67.2475 70.9608 69.7267C70.8989 72.2058 73.0024 74.4371 75.5389 74.4371Z" fill="#415F26"/>
<path d="M233.298 100.778H201.189C198.653 100.778 196.55 102.885 196.55 105.427V108.03H186.713V56.0292H209.665C212.202 56.0292 214.305 53.9219 214.305 51.3807V18.5938C214.305 8.30521 206.015 0 195.745 0H56.7933C54.1331 0 51.9678 2.16927 51.9678 4.83437V48.2198C51.9678 48.5297 52.0915 48.8396 52.2771 49.0875C56.2984 53.2401 61.124 50.451 61.124 46.4844V11.2182C61.124 10.1026 62.052 9.17292 63.1656 9.17292H179.351C177.742 11.9 176.876 15.0609 176.876 18.4078V106.17L162.337 95.262C160.791 94.0844 158.873 93.4646 156.893 93.4646H97.5014C91.1292 93.4646 84.6951 95.0141 79.0034 97.8651L61.2477 106.852V88.0104C61.2477 85.6552 59.5773 83.4859 57.2264 83.238C54.4424 82.9281 52.0915 85.0974 52.0915 87.8245V107.906H42.2547V105.303C42.2547 102.761 40.1513 100.654 37.6148 100.654H4.63998C2.10346 100.654 0 102.761 0 105.303V184.264C0 186.805 2.10346 188.912 4.63998 188.912H37.5529C37.5529 188.912 42.1929 186.991 42.0691 184.45V181.661H60.3816C57.7213 187.673 59.0824 194.615 64.0317 198.767C66.7538 201.06 70.0946 202.114 73.4354 201.99C73.9303 205.275 75.5389 208.374 78.261 210.667C80.9831 212.96 84.3239 214.014 87.6647 213.89C88.1596 217.175 89.7681 220.274 92.4902 222.567C95.2124 224.86 98.5532 225.914 101.894 225.79C102.389 229.075 103.997 232.174 106.72 234.467C112.597 239.426 121.382 238.62 126.331 232.732L132.023 225.976C137.467 229.695 144.953 229.137 149.717 224.365C151.449 222.629 152.686 220.522 153.305 218.229C157.759 219.22 162.647 217.981 166.173 214.448C167.905 212.712 169.143 210.543 169.761 208.312C174.278 209.304 179.103 208.064 182.63 204.531C188.012 199.139 188.074 190.276 182.63 184.822L179.722 181.413H196.055V185.442C196.055 187.239 197.478 188.665 199.272 188.665H234.845C236.639 188.665 238.062 187.239 238.062 185.442V101.708C238.062 100.034 236.33 98.9807 234.845 99.7245L233.422 100.468L233.298 100.778ZM186.713 18.8417C186.713 13.3875 191.415 8.98698 196.983 9.60677C201.684 10.1646 205.149 14.3172 205.149 19.0276V46.7323H186.713V18.8417ZM32.8511 179.802H9.83676V110.013H32.8511V179.802ZM76.4669 191.206C74.7965 193.189 71.8887 193.437 69.909 191.764C67.9293 190.09 67.6818 187.177 69.3522 185.194L75.2914 178.066C76.9618 176.083 79.8695 175.835 81.8492 177.508C83.829 179.182 84.0764 182.095 82.406 184.078L76.4669 191.206ZM90.6961 203.106C89.0257 205.089 86.118 205.337 84.1383 203.664C82.1586 201.99 81.9111 199.077 83.5815 197.094L89.5207 189.966C91.1911 187.983 94.0988 187.735 96.0785 189.408C98.0582 191.082 98.3057 193.995 96.6353 195.978L90.6961 203.106ZM104.925 215.068C103.255 217.051 100.347 217.299 98.3676 215.626C96.3878 213.952 96.1404 211.039 97.8108 209.056L103.75 201.928C105.42 199.945 108.328 199.697 110.308 201.37C112.287 203.044 112.535 205.957 110.865 207.94L104.925 215.068ZM125.094 219.902L119.155 227.03C117.484 229.013 114.577 229.261 112.597 227.588C110.617 225.914 110.37 223.001 112.04 221.018L117.979 213.89C119.65 211.907 122.557 211.659 124.537 213.332C126.517 215.006 126.764 217.919 125.094 219.902ZM175.762 198.767C174.03 200.503 171.184 200.503 169.39 198.767L149.593 178.934C148.17 177.508 146.005 177.136 144.272 178.004C141.303 179.554 140.87 183.334 143.035 185.504L159.492 201.99C160.791 203.292 161.286 205.275 160.543 206.948C159.12 210.233 155.161 210.791 152.934 208.56L136.539 192.135C134.374 189.966 130.6 190.4 129.053 193.375C128.125 195.11 128.558 197.28 129.981 198.705L143.159 211.907C144.458 213.208 144.953 215.192 144.211 216.865C142.788 220.15 138.828 220.708 136.601 218.477L135.549 217.423C135.549 213.394 133.879 209.428 130.6 206.639C127.878 204.345 124.537 203.292 121.196 203.416C120.701 200.131 119.093 196.97 116.371 194.677C113.649 192.383 110.308 191.33 106.967 191.454C106.472 188.169 104.864 185.008 102.141 182.715C99.4193 180.421 96.0785 179.368 92.7377 179.492C92.0572 174.595 88.7783 170.071 83.1484 168.087C77.8279 166.228 71.9506 168.087 68.3624 172.364L67.5581 173.294H42.1929V117.327H61.0621C61.8045 117.327 62.4851 117.141 63.1037 116.831L82.9628 106.914C87.4172 104.683 92.3665 103.505 97.3777 103.505H103.193C102.636 104.125 102.141 104.745 101.646 105.365L80.6119 133.441C79.189 135.363 79.4983 138.028 81.3543 139.577L84.5714 142.304C88.4071 145.527 93.1708 147.139 97.9345 147.139C102.946 147.139 107.957 145.341 111.916 141.808L119.402 135.053L176.01 192.197C177.804 193.995 177.804 196.97 176.01 198.767L175.886 198.891L175.762 198.767ZM196.55 173.232H170.628L134.374 136.602C142.231 138.957 150.83 137.656 157.697 133.069L161.348 130.652C163.204 129.412 164.07 127.057 163.265 125.012C162.152 122.161 158.749 121.231 156.336 122.843L152.563 125.384C147.489 128.793 141.055 129.474 135.364 127.181L123.485 122.409C121.815 121.727 119.959 122.099 118.66 123.277L105.915 134.805C101.77 138.585 95.398 138.771 91.0055 135.301L109.256 110.881C112.782 106.17 118.289 103.443 124.104 103.443H146.933C153.985 103.443 160.791 105.736 166.421 109.951L174.958 116.335C175.762 116.955 176.752 117.265 177.742 117.265H196.611V173.232H196.55ZM228.782 179.802H205.768V110.013H228.782V179.802Z" fill="#415F26"/>
</g>
<defs>
<clipPath id="clip0_3_14412">
<rect width="238" height="238" fill="white"/>
</clipPath>
</defs>
</svg>
