<?xml version="1.0" encoding="UTF-8"?><svg id="Layer_1" xmlns="http://www.w3.org/2000/svg" viewBox="0 0 124.72 34.02"><defs><style>.cls-1{fill:#fff;}.cls-2{fill:#faa61a;}.cls-3{fill:#ffcc40;}.cls-4{fill:#bdd753;}.cls-5{fill:#87b7e2;}.cls-6{fill:#8dc63f;}.cls-7{fill:#e88c9f;}</style></defs><path class="cls-4" d="M50.56,18.43s-.02,0-.02,.01c0,.01,.02,0,.02-.01"/><path class="cls-6" d="M16.19,27.72c5.92,0,10.71-4.8,10.71-10.71s-4.8-10.72-10.71-10.72S5.47,11.09,5.47,17.01s4.8,10.71,10.72,10.71"/><path class="cls-7" d="M37.62,27.72c5.92,0,10.71-4.8,10.71-10.71s-4.8-10.72-10.71-10.72-10.72,4.8-10.72,10.72,4.8,10.71,10.72,10.71"/><path class="cls-3" d="M59.05,27.72c5.92,0,10.72-4.8,10.72-10.71s-4.8-10.72-10.72-10.72-10.72,4.8-10.72,10.72,4.8,10.71,10.72,10.71"/><path class="cls-2" d="M80.48,27.72c5.92,0,10.71-4.8,10.71-10.71s-4.8-10.72-10.71-10.72-10.72,4.8-10.72,10.72,4.8,10.71,10.72,10.71"/><path class="cls-5" d="M101.91,27.72c5.92,0,10.71-4.8,10.71-10.71s-4.8-10.72-10.71-10.72-10.72,4.8-10.72,10.72,4.8,10.71,10.72,10.71"/><path class="cls-1" d="M104.01,19.68c0,1.25-.64,1.88-1.95,1.88s-2.11-.57-2.11-1.52,.66-1.54,2.97-1.54h1.09v1.18Zm2.97,4.15v-6.98c0-4.22-2.45-5.49-5.17-5.49-3.22,0-4.45,1.63-4.45,2.99v.98h.11c.45-.57,1.68-1.41,3.88-1.41,1.81,0,2.63,.52,2.63,2.24v.16h-1.07c-4.49,0-6.08,1.66-6.08,3.83s2,3.88,4.9,3.88h.61c.89,0,1.69-.21,2.37-.56,.33,.23,.77,.36,1.33,.36h.93Z"/><path class="cls-1" d="M15.6,13.88c1.63,0,2.97,1.11,2.97,4.17,0,2.22-.75,3.49-2.45,3.49s-3.06-1.66-3.06-4.2c0-1.97,1-3.47,2.54-3.47m-.02-2.56c-3.56,0-5.51,2.61-5.51,6.62,0,3.36,2.47,6.17,5.69,6.17,1.43,0,2.54-.29,3.42-.79,.34,.33,.84,.52,1.52,.52h.93V7.8c-.93-.55-1.94-.96-3.02-1.21v6.66c-.48-1.07-1.81-1.93-3.04-1.93"/><path class="cls-1" d="M42.99,23.83V13.76c0-1.43-.75-2.18-2.52-2.18h-.54v6.87c0,2.09-.88,2.95-2.13,2.95-1.38,0-2.47-.91-2.47-3.15v-4.49c0-1.43-.77-2.18-2.52-2.18h-.57v6.96c0,3.56,2.38,5.56,5.4,5.56,1.21,0,2.21-.25,3.01-.7,.34,.27,.8,.42,1.41,.42h.93Z"/><path class="cls-1" d="M62.51,11.12h.09v-1.02c0-1.2-1.02-1.93-2.34-1.93-3.56,0-4.76,2.77-4.76,4.49v14.45c.96,.34,1.99,.54,3.06,.59v-11.14h1.32c1.02,0,2.18-.64,2.18-1.72v-.84h-3.49v-1.09c0-1.63,.93-2.06,2.18-2.06,.75,0,1.29,.11,1.77,.27"/><path class="cls-1" d="M76.85,12.08v7.35c0,2.86,1.5,4.54,4.58,4.54,1.77,0,2.68-.79,2.68-2.04v-1.09h-.11c-.48,.29-1.23,.43-2.2,.43-1.22,0-1.93-.61-1.93-2.2v-4.79h2.43c1.25,0,1.82-.82,1.82-1.45v-1.25h-4.24v-2.77h-.7c-.48,0-1.02,.36-1.43,.84-.66,.77-.88,1.22-.88,2.43"/><path class="cls-6" d="M116.22,12.41c-1.67,0-3.04-1.36-3.04-3.04s1.36-3.04,3.04-3.04,3.04,1.36,3.04,3.04-1.36,3.04-3.04,3.04m0-5.49c-1.35,0-2.45,1.1-2.45,2.45s1.1,2.45,2.45,2.45,2.45-1.1,2.45-2.45-1.1-2.45-2.45-2.45m.4,3.57c-.12-.32-.23-.73-.61-.79-.08-.02-.14-.02-.31-.04v1.4h-.25c-.33,0-.43-.2-.43-.46v-2.88c.26-.08,.63-.13,.85-.13h.38c.65,0,1.1,.38,1.1,1.02,0,.36-.18,.71-.7,.84,.27,.14,.43,.49,.49,.62,.11,.21,.15,.44,.26,.63,.03,.05,.06,.1,.1,.15l.07,.1c-.12,.11-.15,.12-.31,.12-.38,0-.52-.25-.64-.57m-.63-2.37s-.12,.02-.28,.04v.97c.21,.03,.33,.02,.47,.02,.26,0,.5-.17,.5-.49,0-.42-.22-.54-.49-.54h-.19Z"/></svg>