<?xml version="1.0" encoding="utf-8"?>
<!-- Generator: Adobe Illustrator 26.5.3, SVG Export Plug-In . SVG Version: 6.00 Build 0)  -->
<svg version="1.1" id="Ebene_1" xmlns="http://www.w3.org/2000/svg" xmlns:xlink="http://www.w3.org/1999/xlink" x="0px" y="0px"
	 viewBox="0 0 390.3 135.76" style="enable-background:new 0 0 390.3 135.76;" xml:space="preserve">
<style type="text/css">
	.st0{fill-rule:evenodd;clip-rule:evenodd;}
</style>
<path id="GEHWOL__x28_R_x29_" class="st0" d="M286.5,70.83c-10.01,0-17.64,2.77-22.89,8.31c-5.25,5.54-7.87,13.55-7.87,24.05
	c0,10.61,2.64,18.7,7.92,24.25c5.28,5.55,12.86,8.33,22.76,8.33c10.04,0,17.66-2.76,22.87-8.28c5.21-5.52,7.81-13.59,7.81-24.2
	c0-10.64-2.59-18.71-7.77-24.2C304.14,73.58,296.54,70.83,286.5,70.83z M296.01,117.12c-2.09,2.96-5.29,4.44-9.6,4.44
	c-8.49,0-12.73-6.1-12.73-18.29c0-12.31,4.27-18.47,12.81-18.47c4.2,0,7.36,1.5,9.47,4.51s3.17,7.66,3.17,13.96
	C299.14,109.54,298.1,114.16,296.01,117.12z M239.13,71.82h16.44l-15.53,63.08h-20.15l-6.04-27.48c-0.29-1.15-0.74-3.44-1.36-6.86
	c-0.62-3.42-1.07-6.28-1.36-8.58c-0.23,1.87-0.6,4.19-1.12,6.97c-0.52,2.78-1.03,5.33-1.53,7.66c-0.5,2.33-2.6,11.76-6.28,28.3
	h-20.15l-15.62-63.08h16.44l6.86,31.63c1.55,6.99,2.62,12.55,3.19,16.7c0.37-2.93,1.04-6.92,2.01-11.95
	c0.96-5.03,1.86-9.2,2.7-12.51l5.57-23.86h15.79l5.39,23.86c0.92,3.83,1.86,8.24,2.8,13.25c0.95,5,1.58,8.75,1.9,11.22
	c0.37-3.19,1.39-8.73,3.06-16.61L239.13,71.82z M145.56,71.82h17.13v63.08h-17.13v-25.71h-19.8v25.71h-17.13V71.82h17.13V95.2h19.8
	V71.82z M348.28,95.85l-3.58-5.99c1.54-0.62,2.31-1.79,2.31-3.51c0-1.38-0.41-2.41-1.22-3.09c-0.81-0.68-2.1-1.03-3.85-1.03h-3.95
	v13.62h2.85v-5.22h1.36l2.9,5.22H348.28z M343.57,87.91c-0.38,0.35-0.95,0.53-1.69,0.53h-1.04v-3.98h1.01
	c0.79,0,1.38,0.14,1.74,0.43c0.37,0.29,0.55,0.79,0.55,1.52C344.14,87.06,343.95,87.56,343.57,87.91z M27.66,97.97h27.22v34
	c-7.39,2.53-15.52,3.8-24.38,3.8c-9.72,0-17.24-2.82-22.54-8.46C2.65,121.67,0,113.63,0,103.19C0,93,2.9,85.08,8.71,79.41
	c5.81-5.67,13.95-8.5,24.42-8.5c3.97,0,7.72,0.37,11.24,1.12c3.52,0.75,6.59,1.7,9.21,2.85l-5.39,13.37
	c-4.54-2.24-9.53-3.37-14.97-3.37c-4.98,0-8.82,1.62-11.54,4.85c-2.72,3.24-4.08,7.86-4.08,13.87c0,5.9,1.23,10.39,3.69,13.48
	c2.46,3.09,6,4.64,10.64,4.64c2.53,0,4.86-0.24,6.99-0.73v-9.88H27.66V97.97z M340.22,100.13c0.71,0.14,1.43,0.23,2.19,0.23
	c2.09,0,4.02-0.52,5.78-1.57c1.76-1.05,3.13-2.44,4.1-4.18s1.46-3.6,1.46-5.58c0-2.03-0.51-3.93-1.52-5.69
	c-1.02-1.76-2.4-3.14-4.16-4.15c-1.76-1.01-3.65-1.51-5.66-1.51c-0.75,0-1.47,0.09-2.19,0.23v-6.1h-17.04v63.08h41.33v-13.76h-24.29
	V100.13z M334.19,93.79c-0.85-1.46-1.27-3.05-1.27-4.76c0-1.72,0.43-3.31,1.3-4.78c0.86-1.47,2.02-2.62,3.48-3.46
	c1.45-0.83,3.02-1.25,4.71-1.25c1.68,0,3.26,0.42,4.73,1.27s2.63,2,3.49,3.48c0.85,1.47,1.27,3.05,1.27,4.75
	c0,1.7-0.42,3.28-1.26,4.73c-0.84,1.45-1.99,2.61-3.46,3.47c-1.47,0.86-3.06,1.29-4.77,1.29c-1.69,0-3.27-0.42-4.74-1.27
	C336.2,96.41,335.04,95.25,334.19,93.79z M63.5,71.82h37.45V85.5H80.54v9.92h18.9v13.68h-18.9v11.91h20.41v13.89H63.5V71.82z"/>
<path id="FUSS" d="M309.3,6.27c0.81-1.44,1.73-2.45,3.41-2.81c2.09-0.45,3.94,0.76,5.72,2.4c2.33,2.15,6.32,7.43,4.2,12.07
	c-0.86,1.88-3.28,2.96-5.27,3.14c-2.27,0.21-4.55-1.01-6.09-3.14C308.27,13.76,307.86,8.83,309.3,6.27L309.3,6.27z M352.19,12.26
	c-0.5,1.05,0.11,2.54,1.09,3.66c1.01,1.17,2.82,2.46,5.19,1.94c0.69-0.15,1.27-0.43,1.7-0.99c0.63-0.82,0.35-2.84-0.92-4.38
	c-1.25-1.52-3.42-2.26-4.78-1.94C353.29,10.82,352.74,11.12,352.19,12.26L352.19,12.26z M324.82,20.63
	c-2.26,1.15-3.94,2.35-4.53,4.44c-1.22,4.38,0.36,10.77,3.52,14.02c3.94,4.06,8.97,5.14,13.8,4.74c2.32-0.19,5.11-0.12,7.5,0.9
	c3.76,1.61,9.15,6.41,11.2,9.09c3.21,4.19,5.06,8.73,6.38,13.53c1.76,6.45,1.97,11.59,1.05,17.9c-0.68,4.67-1.23,6.12,0.34,10.51
	c1.6,4.49,6.03,9.88,10.07,11.43c2.74,1.05,5.07,1.17,7.85,0.18c3.36-1.21,5.25-2.83,6.98-6.11c2.26-4.28,1.67-11.53-2.02-17.52
	c-2.19-3.56-3.25-5.23-4.69-8.87c-2.68-6.79-3.08-11.8-4.39-19.42c-1.01-5.87-1.81-9.54-2.95-14.24c-1.79-7.4-4.27-14.15-7.37-17.49
	c-3.07-3.31-4.12-3.41-9.03-3.82c-3.29-0.27-5.72-1.77-8.11-2.3c-6.71-1.47-13.09-0.82-18.11,0.33
	C329.31,18.6,327.27,19.38,324.82,20.63L324.82,20.63z M342.96,5.58c-1.49-0.03-2.56,0.77-3.11,1.74c-0.92,1.57-0.02,4.08,1.26,5.26
	c1.2,1.11,3.7,1.88,5.15,1.42c0.9-0.28,1.65-0.85,2.15-1.88c0.63-1.32-0.41-4.31-2.15-5.52C345.23,5.89,343.96,5.56,342.96,5.58
	L342.96,5.58z M330.63,4.58c0,0-0.07,0.16-0.11,0.35c-0.03,0.16-0.02,0.42-0.02,0.42s-0.05-0.15-0.08-0.29
	c-0.03-0.12-0.13-0.35-0.24-0.63c-0.84-1.73-2.51-4.48-4.95-4.43c-1.56,0.04-2.77,0.6-3.66,2.04c-1.6,2.56,0.05,6.26,1.6,7.72
	c1.37,1.29,2.96,2.02,4.46,1.77c1.94-0.33,2.66-1.88,3.07-3.74c0,0,0.51,1.16,1.02,1.91c1.01,1.49,2.07,2.33,3.83,2.23
	c1.41-0.08,2.47-0.61,3.06-1.95c0.88-1.97,0.03-4.83-1.49-6.38c-1.1-1.12-2.84-1.42-4.32-0.94C332.08,2.9,331.12,3.43,330.63,4.58
	L330.63,4.58z"/>
</svg>
