<svg width="140" height="122" viewBox="0 0 140 122" fill="none" xmlns="http://www.w3.org/2000/svg">
<g clip-path="url(#clip0_8_593)">
<path d="M70.7001 117.693C69.3001 115.561 65.8876 116.518 65.7126 118.998C65.5376 121.435 68.5564 122.87 70.3064 121.174C71.2689 120.26 71.4439 118.781 70.7001 117.693Z" fill="#415F26"/>
<path d="M9.3625 122H55.7375C57.225 122 58.5375 120.825 58.5375 119.346C58.5375 117.867 57.3563 116.605 55.825 116.605H9.40625C7.21875 116.605 5.425 114.821 5.425 112.645V109.339H134.444V115.43C134.444 116.083 133.919 116.605 133.262 116.605H80.0188C79.8 116.605 79.5812 116.692 79.4062 116.866C77.0875 119.215 78.7063 122 80.9813 122H137.069C138.6 122 139.869 120.738 139.869 119.215V106.685C139.869 105.162 138.644 103.944 137.113 103.944H131.556C132.038 102.856 132.3 101.638 132.3 100.376V47.2075C137.769 41.4643 140.788 33.3716 139.781 24.6697C138.294 11.8345 128.012 1.6533 115.106 0.173981C100.713 -1.47937 88.0687 7.70108 84.525 20.5798H16.5812C11.5938 20.5798 7.525 24.6262 7.525 29.5863V100.419C7.525 101.681 7.7875 102.899 8.26875 103.987H2.75625C1.225 103.987 0 105.205 0 106.728V112.732C0 117.867 4.2 122.043 9.3625 122.043V122ZM104.912 80.9707C103.425 80.9707 102.2 82.189 102.2 83.7118V92.9793H93.7125V88.7589C93.7125 87.3666 92.6625 86.1048 91.2625 85.9743C89.6438 85.8437 88.3313 87.1055 88.3313 88.6718V92.9358H79.8438V84.7125C79.8438 83.3202 78.7938 82.0584 77.3938 81.9279C75.775 81.7974 74.4625 83.0592 74.4625 84.6255V92.9358H65.975V79.0998C65.975 77.7075 64.925 76.4457 63.525 76.3152C61.9063 76.1847 60.5938 77.4464 60.5938 79.0128V92.9358H52.1063V77.7075C52.1063 76.3152 51.0563 75.0534 49.6562 74.9229C48.0375 74.7924 46.725 76.0542 46.725 77.6205V92.8922H38.2375V66.047C38.2375 64.7853 37.3625 63.6105 36.1375 63.3059C34.2563 62.8708 32.5938 64.2196 32.5938 65.96V92.8922H23.8875V64.3937L32.0687 53.3423H36.925L48.2125 68.7446C48.6938 69.4407 49.525 69.8323 50.3563 69.8758C51.2313 69.8758 52.0187 69.5278 52.5438 68.8751L56.7438 63.654H61.1625L70.1313 75.532C70.6125 76.1847 71.4 76.5763 72.1875 76.6198C73.0188 76.6198 73.8063 76.3152 74.3312 75.7061L78.5312 70.9636L86.1875 79.97C86.7125 80.5791 87.5 80.9272 88.3313 80.9272C89.1625 80.9272 89.9062 80.5356 90.4313 79.883L98.4375 69.7453H103.425L108.413 75.7931C108.938 76.4022 109.725 76.7938 110.513 76.7938H116.2V92.9358H107.713V83.6683C107.713 82.1454 106.488 80.9272 105 80.9272L104.912 80.9707ZM111.606 71.3987L106.575 65.3944C106.05 64.7417 105.263 64.3937 104.431 64.3937L97.0813 64.6112C97.0813 64.6112 95.4625 64.8288 94.9375 65.4814L88.1562 74.0962L80.5875 65.1768C80.0625 64.5677 78.5312 64.1326 78.5312 64.1326H78.4437C77.6562 64.1326 76.9125 64.4807 76.4312 65.0463L72.4062 69.6148L64.6625 59.3466C64.1375 58.6504 63.35 58.2589 62.475 58.2589H55.5625C54.7313 58.2589 53.9437 58.6504 53.4188 59.2596L50.6187 62.6968L40.6 49.0349C40.075 48.3387 39.2875 47.9037 38.4125 47.9037H30.8875C30.0125 47.9037 29.225 48.2952 28.7 48.9914L24.1063 55.1697V36.8958H85.3563C86.3187 39.6804 87.675 42.291 89.4688 44.6405L87.8938 54.082C87.7188 54.9957 88.0687 55.9529 88.8125 56.562C89.5125 57.1711 90.5625 57.3452 91.4375 57.0841L101.544 53.8209C106.137 55.6483 111.256 56.2574 116.156 55.5178V71.3116H111.694L111.606 71.3987ZM111.912 5.4386C124.425 5.4386 134.619 15.5763 134.619 28.0199C134.619 38.5056 127.4 47.338 117.644 49.8616C112.7 51.1668 107.319 50.7318 102.637 48.5998C102.025 48.3387 101.325 48.2952 100.669 48.5128L93.8875 50.7318L94.9375 44.4229C95.0688 43.6833 94.85 42.8566 94.3688 42.2474C90.475 37.0698 88.5062 30.935 89.5562 24.4522C91.2625 13.7054 100.669 5.4386 111.956 5.4386H111.912ZM12.95 100.419V29.5427C12.95 27.5848 14.5688 25.975 16.5375 25.975H83.2125C83.0813 27.7589 83.125 29.5863 83.3438 31.3701H21.0875C19.5563 31.3701 18.3313 32.5884 18.3313 34.1112V95.6333C18.3313 97.1562 19.5563 98.3744 21.0875 98.3744H118.737C120.269 98.3744 121.494 97.1562 121.494 95.6333V54.256C123.375 53.5599 125.213 52.6897 126.919 51.6019V100.419C126.919 102.377 125.344 103.944 123.375 103.987H16.4937C14.525 103.987 12.95 102.377 12.95 100.419Z" fill="#415F26"/>
<path d="M111.956 36.4609C109.944 36.4609 108.544 36.1129 107.581 35.4167C106.619 34.7206 105.437 34.59 104.475 35.1992C102.769 36.2869 102.812 38.5494 104.256 39.6371C105.612 40.6813 107.275 41.334 109.244 41.6385V42.3347C109.244 43.814 110.425 45.1193 111.912 45.1193C113.4 45.1193 114.669 43.9445 114.669 42.4217V41.4645C117.906 40.5073 120.356 37.8967 120.969 34.416C121.669 30.2826 119.437 26.5843 115.369 25.1485C112.481 24.1478 110.687 23.3211 109.594 22.4945C109.069 22.1029 109.069 21.4937 109.112 21.0586C109.244 20.3625 109.769 19.4923 110.819 19.1442C113.181 18.4481 114.669 19.6228 114.844 19.7534C115.937 20.7541 117.687 20.7541 118.694 19.6663C119.7 18.5786 119.656 16.8818 118.562 15.8375L118.431 15.7505C117.687 15.0544 116.331 14.2277 114.581 13.7926V13.227C114.581 11.7477 113.4 10.4424 111.912 10.4424C110.425 10.4424 109.156 11.6171 109.156 13.14V14.0101C106.356 14.8803 104.256 17.2298 103.731 20.1014C103.25 22.712 104.212 25.2355 106.269 26.7584C107.844 27.9331 110.031 28.9773 113.487 30.1956C115.719 30.9788 115.675 32.7626 115.544 33.5023C115.281 34.9816 114.056 36.4609 111.869 36.4609H111.956Z" fill="#415F26"/>
</g>
<defs>
<clipPath id="clip0_8_593">
<rect width="140" height="122" fill="white"/>
</clipPath>
</defs>
</svg>
