<?xml version="1.0" encoding="utf-8"?>
<!-- Generator: Adobe Illustrator 26.3.1, SVG Export Plug-In . SVG Version: 6.00 Build 0)  -->
<svg version="1.1" id="Layer_1" xmlns:serif="http://www.serif.com/"
	 xmlns="http://www.w3.org/2000/svg" xmlns:xlink="http://www.w3.org/1999/xlink" x="0px" y="0px" viewBox="0 0 321.7 321.7"
	 style="enable-background:new 0 0 321.7 321.7;" xml:space="preserve">
<style type="text/css">
	.st0{fill:#94C11F;}
	.st1{fill:#FFFFFF;}
</style>
<g>
	<g transform="matrix(1,0,0,1,135.689,285.533)">
		<path class="st0" d="M25.2,36.2c88.8,0,160.9-72,160.9-160.9S114-285.5,25.2-285.5s-160.9,72-160.9,160.9S-63.7,36.2,25.2,36.2"/>
	</g>
	<g transform="matrix(1,0,0,1,142.165,303.321)">
		<path class="st1" d="M95.2-218.7c13.8-3.2,22-9,25.2-13.1c3.2-4.1-5.3-18.1-16.7-7.6c-4.1,3.7-23.2,11.7-34.2,19.1
			c-5.3,3.6-10.3,7.3-14.7,11c-16.4,13.3-25,39.4-31,56.3c-6,17-23.9,34.6-28.9,39.2c-5.1,4.6-6.1,1-2.8-2.5
			c14.7-15.1,19.1-26.8,28-58.7c7.6-27,15.5-35.1,23.3-40.8c-6.9-9.5-18.9-12.9-30.6-13.6c-18.6-1.1-34.1,7.4-44.8,22.3
			c-22.6,31.4-10,70.6-24.9,104.6C-63.7-86.8-72.6-73.7-85.3-62c18.7-5.8,36-7.1,55.5-4.7c21,2.6,40.4,4.4,60.6-3.5
			c39.2-15.3,106.5-58.6,77.5-108.6c-10.7-18.5-27.6-24.6-46.6-22.2c0.6-0.6,1.3-1.2,1.8-1.6C68.8-206.5,81.4-215.5,95.2-218.7"/>
	</g>
</g>
</svg>
